<svg id="图层_1" data-name="图层 1" xmlns="http://www.w3.org/2000/svg" viewBox="0 0 33 33"><defs><style>.cls-1,.cls-2{fill:#1ca5ca;}.cls-2{fill-rule:evenodd;}</style></defs><title>画板 4 副本 7</title><path class="cls-1" d="M30.16,22.57a15.28,15.28,0,0,1-.79,1.52A14.93,14.93,0,0,1,1.84,19.41l4.27,2.92L7,20.92,1.6,17.21.51,16.46s0,.08,0,.12a15.79,15.79,0,0,0,.14,2A16,16,0,0,0,30.44,24.4a16.45,16.45,0,0,0,.77-1.53Z"/><path class="cls-1" d="M2.84,10.47A14.48,14.48,0,0,1,3.63,9a14.93,14.93,0,0,1,27.52,4.68l-4.27-2.92L26,12.13l5.43,3.71,1.09.75s0-.08,0-.12a15.79,15.79,0,0,0-.14-2A16,16,0,0,0,2.56,8.65a15.52,15.52,0,0,0-.77,1.53Z"/><path class="cls-2" d="M22.06,19.09A7.08,7.08,0,0,1,21.5,18c-.12-.42-.34-.7-.2-.75s.1.54.37.38.78-.08.05-.91l0-.28s.67,0,.78-.5-.47-1.19-.4-1.27.36.08.42.16.31.69.53.65c.07,0,.08-.08.07-.18s.15.09.52-.06c.59-.24-.1-.54-.1-.54l.17-.32-.25-.22-.18.26s0,.77-.17.81h0a7.28,7.28,0,0,0-.37-.91c-.07-.15.1,0,.2-.08.22-.28.59-.42-.19-1-.35.06-.56-.48-.27-.44a5.89,5.89,0,0,0,.9-.14c.12,0,.08.42.08.42s.35.48.39.56,0-.5,0-.5-.39-.26-.27-.38.3,0,.42-.08,0-.4,0-.4a2.27,2.27,0,0,1-.64-.4c-.1-.16-.87-.16-1.26-.12a7.35,7.35,0,0,0-1.72-.2l-2.14-.44s.16.34,0,.42-.52-.16-.59,0-.54.29-.61.34a2.84,2.84,0,0,0-.25.29l-.14-.21-.08.21-.24.19-.1-.14-.07-.1h.27s.12-.3-.39-.24a.92.92,0,0,0-.94,0c-.15.12-.25.38-.39.44s-.12.58,0,.58h.4l.15-.18s.2-.75.29-.54-.4.46.3.46a1.12,1.12,0,0,1-.47.42H15l-.56.34c-.09.06-.4-.34-.4-.34a5.73,5.73,0,0,1,.1.77c0,.26-.42.34-.42.34s.07.56.09.83a.88.88,0,0,0-.2.56l-.3.18L13.17,17s-.2.34,0,.46a2.88,2.88,0,0,1,.54.69,1,1,0,0,0,.51,0c.15-.08.22-.54.42-.12s.22.06.22.06.27.18.08.66a1,1,0,0,1,.2.73v.85a4.85,4.85,0,0,1,.44,1.55c-.1.3.37-.1.54,0s.69-.93.62-1.29.42-.5.45-.68A1.28,1.28,0,0,0,17,19c-.18-.16,1.15-1.29.93-1.61s-.44.22-.61.12a.28.28,0,0,1-.12-.3s1-.08,1.17-.5.33-1.05.89-.06.78,1.39.91,1.25-.34-1,0-1.05.12-.46.37-.46,1.23,2.22.91,1.91-.46-.18-.46-.18a4.53,4.53,0,0,1,.78,1.13,5.8,5.8,0,0,1,.69,0s-.37-.16-.37-.22Zm.79-.24.12.24a.25.25,0,0,0-.12-.24Z"/><path class="cls-2" d="M22.48,17.93s-.3.32-.41.4.12.64.52.52a.36.36,0,0,1,.25,0l-.17-.33s.1-.58-.2-.58Zm1.79,1.77.13-.46.35.22s.26-.2-.67-.83c0,0-.41.08-.47-.12s0,.52,0,.52l.29.06.19.38s.3.91,0,.71-.34,0-.31-.2-.14-.44-.27-.32-.74.44-.91.81-.22,0-.22,0l-.22.3.19.24-.19.22s-.3.52-.11.62a3.76,3.76,0,0,0,1.19-.18l.27.54s0,.52.17.54.31-.52.41-.62a1.5,1.5,0,0,0,.67-1.05,1.41,1.41,0,0,0-.49-1.37ZM11.55,12.44c.2.26.35.44.4.44s1.23-.8,1.23-.8.56-.45.44-.8c-.44-.68-2-.14-2.33,0s.2-.22.2-.22a2.72,2.72,0,0,0-1,.12,6.22,6.22,0,0,1-.74.52,2.15,2.15,0,0,1-.39-.18l-1.15.24a2.44,2.44,0,0,1-.72.24,6.29,6.29,0,0,1-1.2-.22,8.36,8.36,0,0,1-1,.87c-.1,0-.47.36-.37.42s.54-.58,1-.18.69.54.5,1.15a3.39,3.39,0,0,0,.25,2.3c.34.38.89.28,1.13.67s.44.67.76.77-.1.79,0,1.05l.23.73a2,2,0,0,0,.57.75c.35.24-.4,3.46,1,3.63-.3-.93-.42-1.49-.19-1.57a1.27,1.27,0,0,1,.36-.08l.61-1.53s.42-.09.39-.13a4.42,4.42,0,0,1,.13-.91c0-.06.25-.36.15-.52a1.51,1.51,0,0,0-.76-.56c-.19-.15-.34-.64-.55-.7s-.54-.48-.54-.48a.75.75,0,0,1-.59,0,1.7,1.7,0,0,0-.94.1,1,1,0,0,0,0-.55c-.1-.2-.25,0-.25,0a1.43,1.43,0,0,0,.05-.62c-.07-.22-.41.18-.41.18s-.34-.1-.3-.65,1.21-.24,1.21-.24l.07.46L9,15.38l.56-.59,1.13-1s.32.58.46.34c-.09-.18-.22-.4-.09-.62-.7-1.09.12-1.11.12-1.11l-.47-.6s-.27-.16-.19-.2.2-.46.51-.26a2.6,2.6,0,0,1,.57.6.42.42,0,0,0,0,.52Z"/></svg>