<svg id="图层_1" data-name="图层 1" xmlns="http://www.w3.org/2000/svg" xmlns:xlink="http://www.w3.org/1999/xlink" viewBox="0 0 33 33"><defs><style>.cls-1{fill:none;clip-rule:evenodd;}.cls-2{fill:#1ca5ca;fill-rule:evenodd;}.cls-3{clip-path:url(#clip-path);}</style><clipPath id="clip-path"><path class="cls-1" d="M16.44,31.43A14.93,14.93,0,1,1,31.38,16.5,15,15,0,0,1,16.44,31.43Z"/></clipPath></defs><title>画板 4</title><path class="cls-2" d="M16.5.5a16,16,0,1,0,16,16,16,16,0,0,0-16-16Zm0,30.93A14.93,14.93,0,1,1,31.43,16.5,15,15,0,0,1,16.5,31.43Z"/><g class="cls-3"><path class="cls-2" d="M23.13,27.4V26.13h-.64V27.4H20v2.34H16.87v-5H15.12V22.09H13V18.64h-.64v3.45H10.17v2.65H8.42V38.07h16V27.4H23.13m-3.11,3v2H16.87v-2H20m-3.16,2.68H20v1.83H16.87V33.05h0M10.81,22.73h3.67v2H10.81v-2h0m5.42,14.7H9.06v-12h7.16v12h0m.64,0V35.52H20v1.91H16.87m3.8,0V35.52h3.16v1.91H20.66m3.16-2.55H20.66V33.05h3.16v1.83h0m-3.16-2.47v-2h3.16v2H20.66m0-2.68V28h3.16v1.7H20.66m-10-2.63h1.17v1.17H10.71V27.11h0m2.55,0h1.17v1.17H13.26V27.11h0m-2.47,2.36H12v1.17H10.79V29.47h0m2.55,0H14.5v1.17H13.33V29.47h0m-2.55,2.68H12v1.17H10.79V32.16h0m2.55,0H14.5v1.17H13.33V32.16h0m-2.55,2.47H12v1.17H10.79V34.62h0m2.55,0H14.5v1.17H13.34V34.62h0m0,0"/></g></svg>