<svg id="图层_1" data-name="图层 1" xmlns="http://www.w3.org/2000/svg" viewBox="0 0 33 33"><defs><style>.cls-1{fill:#1ca5ca;fill-rule:evenodd;}</style></defs><title>画板 4 副本 5</title><path class="cls-1" d="M16.5.5a16,16,0,1,0,16,16,16,16,0,0,0-16-16Zm0,30.93A14.93,14.93,0,1,1,31.43,16.5,15,15,0,0,1,16.5,31.43Z"/><path class="cls-1" d="M9.8,14.55l-3.2,2,3.2,2-3.2,2,9.8,6,10-5.78-3.26-2,3.26-1.88-3.26-2L26.4,12.8l-10-6.2-9.81,6,3.2,2Zm6.6-6.63,7.82,4.85-7.81,4.51L8.75,12.6,16.4,7.92ZM22,15.32l2.18,1.36-7.81,4.51L8.75,16.5l2.12-1.3,5.53,3.38L22,15.32ZM8.75,20.41l2.12-1.3,5.53,3.38L22,19.23l2.18,1.35L16.41,25.1,8.75,20.41Z"/></svg>