<svg id="图层_1" data-name="图层 1" xmlns="http://www.w3.org/2000/svg" viewBox="0 0 33 33"><defs><style>.cls-1{fill:#1ca5ca;fill-rule:evenodd;}</style></defs><title>画板 4 副本 2</title><path class="cls-1" d="M16.5.5a16,16,0,1,0,16,16,16,16,0,0,0-16-16Zm0,30.93A14.93,14.93,0,1,1,31.43,16.5,15,15,0,0,1,16.5,31.43Z"/><path class="cls-1" d="M26.18,12.2a.39.39,0,0,1-.52,0l-.26-.26h0L20.25,6.79c-.06-.13-.06-.32.06-.39a.39.39,0,0,1,.52,0l5.35,5.28a.39.39,0,0,1,0,.52Zm-1,.45-2.38,5.86s-9,2.58-11.47,5.09l-1-1,7.6-7.6a1.21,1.21,0,0,0,.52.13,1,1,0,1,0-1-1,.82.82,0,0,0,.06.39l-7.67,7.6-1-1C11.36,18.71,14,9.75,14,9.75l5.93-2.38,5.22,5.28ZM9.49,23.73a1,1,0,0,1-.26.77,4.62,4.62,0,0,0,3,1.61c1.29,0,3.41-1.42,5.16-2.77a9.53,9.53,0,0,1,4.83-1.74h.06a1.39,1.39,0,0,1,1.35-1,1.35,1.35,0,1,1,0,2.71,1.45,1.45,0,0,1-1.35-1h-.06a10.62,10.62,0,0,0-3.48,1c-1.22.52-4.12,3.48-6.57,3.41a4.85,4.85,0,0,1-3.61-1.8,1.51,1.51,0,0,1-.52.13,1.35,1.35,0,0,1,0-2.71,1.39,1.39,0,0,1,1.42,1.42Z"/></svg>