{
    "accessors": {
        "accessor_113": {
            "bufferView": "bufferView_170",
            "byteOffset": 11808,
            "byteStride": 0,
            "componentType": 5123,
            "count": 20736,
            "type": "SCALAR"
        },
        "accessor_115": {
            "bufferView": "bufferView_171",
            "byteOffset": 327936,
            "byteStride": 12,
            "componentType": 5126,
            "count": 3994,
            "max": [
                0.407079,
                0.4125,
                0.210627
            ],
            "min": [
                -0.407079,
                -0.23924,
                0.101458
            ],
            "type": "VEC3"
        },
        "accessor_117": {
            "bufferView": "bufferView_171",
            "byteOffset": 375864,
            "byteStride": 12,
            "componentType": 5126,
            "count": 3994,
            "max": [
                0.999999,
                1,
                1
            ],
            "min": [
                -0.999999,
                -1,
                -1
            ],
            "type": "VEC3"
        },
        "accessor_119": {
            "bufferView": "bufferView_171",
            "byteOffset": 423792,
            "byteStride": 8,
            "componentType": 5126,
            "count": 3994,
            "max": [
                0.944264,
                0.954641
            ],
            "min": [
                0.0557364,
                0.214641
            ],
            "type": "VEC2"
        },
        "accessor_121": {
            "bufferView": "bufferView_171",
            "byteOffset": 455744,
            "byteStride": 12,
            "componentType": 5126,
            "count": 3994,
            "max": [
                1,
                0.99996,
                1
            ],
            "min": [
                -1,
                -0.999961,
                -1
            ],
            "type": "VEC3"
        },
        "accessor_123": {
            "bufferView": "bufferView_171",
            "byteOffset": 503672,
            "byteStride": 12,
            "componentType": 5126,
            "count": 3994,
            "max": [
                1,
                0.999973,
                1
            ],
            "min": [
                -1,
                -1,
                -1
            ],
            "type": "VEC3"
        },
        "accessor_154": {
            "bufferView": "bufferView_170",
            "byteOffset": 133584,
            "byteStride": 0,
            "componentType": 5123,
            "count": 5184,
            "type": "SCALAR"
        },
        "accessor_156": {
            "bufferView": "bufferView_171",
            "byteOffset": 2080624,
            "byteStride": 12,
            "componentType": 5126,
            "count": 1128,
            "max": [
                0.408602,
                0.271469,
                0.101458
            ],
            "min": [
                -0.408602,
                -0.219936,
                0
            ],
            "type": "VEC3"
        },
        "accessor_158": {
            "bufferView": "bufferView_171",
            "byteOffset": 2094160,
            "byteStride": 12,
            "componentType": 5126,
            "count": 1128,
            "max": [
                0.999999,
                1,
                1
            ],
            "min": [
                -1,
                -1,
                -1
            ],
            "type": "VEC3"
        },
        "accessor_160": {
            "bufferView": "bufferView_171",
            "byteOffset": 2107696,
            "byteStride": 8,
            "componentType": 5126,
            "count": 1128,
            "max": [
                0.93138,
                0.949391
            ],
            "min": [
                0.0686198,
                0.374263
            ],
            "type": "VEC2"
        },
        "accessor_162": {
            "bufferView": "bufferView_171",
            "byteOffset": 2116720,
            "byteStride": 12,
            "componentType": 5126,
            "count": 1128,
            "max": [
                1,
                0.999999,
                0.999044
            ],
            "min": [
                -1,
                -0.999987,
                -0.998988
            ],
            "type": "VEC3"
        },
        "accessor_164": {
            "bufferView": "bufferView_171",
            "byteOffset": 2130256,
            "byteStride": 12,
            "componentType": 5126,
            "count": 1128,
            "max": [
                0.999999,
                0.999867,
                0.998361
            ],
            "min": [
                -0.999993,
                -1,
                -1
            ],
            "type": "VEC3"
        },
        "accessor_31": {
            "bufferView": "bufferView_170",
            "byteOffset": 0,
            "byteStride": 0,
            "componentType": 5123,
            "count": 5904,
            "type": "SCALAR"
        },
        "accessor_33": {
            "bufferView": "bufferView_171",
            "byteOffset": 0,
            "byteStride": 12,
            "componentType": 5126,
            "count": 5856,
            "max": [
                7.79076,
                1,
                0.788305
            ],
            "min": [
                -0.401757,
                -1.52208,
                -6.44249
            ],
            "type": "VEC3"
        },
        "accessor_35": {
            "bufferView": "bufferView_171",
            "byteOffset": 70272,
            "byteStride": 12,
            "componentType": 5126,
            "count": 5856,
            "max": [
                0.999928,
                1,
                0.999921
            ],
            "min": [
                -0.999931,
                -1,
                -0.999927
            ],
            "type": "VEC3"
        },
        "accessor_37": {
            "bufferView": "bufferView_171",
            "byteOffset": 140544,
            "byteStride": 8,
            "componentType": 5126,
            "count": 5856,
            "max": [
                1.3269,
                1.18512
            ],
            "min": [
                -0.326898,
                -0.185124
            ],
            "type": "VEC2"
        },
        "accessor_39": {
            "bufferView": "bufferView_171",
            "byteOffset": 187392,
            "byteStride": 12,
            "componentType": 5126,
            "count": 5856,
            "max": [
                1,
                0.999928,
                1
            ],
            "min": [
                -1,
                -0.999928,
                -1
            ],
            "type": "VEC3"
        },
        "accessor_41": {
            "bufferView": "bufferView_171",
            "byteOffset": 257664,
            "byteStride": 12,
            "componentType": 5126,
            "count": 5856,
            "max": [
                1,
                0.999932,
                1
            ],
            "min": [
                -1,
                -1,
                -1
            ],
            "type": "VEC3"
        },
        "accessor_72": {
            "bufferView": "bufferView_170",
            "byteOffset": 53280,
            "byteStride": 0,
            "componentType": 5123,
            "count": 40152,
            "type": "SCALAR"
        },
        "accessor_74": {
            "bufferView": "bufferView_171",
            "byteOffset": 551600,
            "byteStride": 12,
            "componentType": 5126,
            "count": 27304,
            "max": [
                4.89038,
                11.9622,
                10.5618
            ],
            "min": [
                -10.4118,
                5.40674,
                1.24719
            ],
            "type": "VEC3"
        },
        "accessor_76": {
            "bufferView": "bufferView_171",
            "byteOffset": 879248,
            "byteStride": 12,
            "componentType": 5126,
            "count": 27304,
            "max": [
                0.999922,
                0.999649,
                0.999998
            ],
            "min": [
                -0.999911,
                -0.999994,
                -0.999727
            ],
            "type": "VEC3"
        },
        "accessor_78": {
            "bufferView": "bufferView_171",
            "byteOffset": 1206896,
            "byteStride": 8,
            "componentType": 5126,
            "count": 27304,
            "max": [
                0.776923,
                0.698877
            ],
            "min": [
                0.223989,
                0.251665
            ],
            "type": "VEC2"
        },
        "accessor_80": {
            "bufferView": "bufferView_171",
            "byteOffset": 1425328,
            "byteStride": 12,
            "componentType": 5126,
            "count": 27304,
            "max": [
                0.999971,
                0.999903,
                0.999542
            ],
            "min": [
                -0.999977,
                -0.999914,
                -0.999452
            ],
            "type": "VEC3"
        },
        "accessor_82": {
            "bufferView": "bufferView_171",
            "byteOffset": 1752976,
            "byteStride": 12,
            "componentType": 5126,
            "count": 27304,
            "max": [
                0.999999,
                0.999987,
                0.999955
            ],
            "min": [
                -1,
                -0.999949,
                -0.999998
            ],
            "type": "VEC3"
        },
        "animAccessor_0": {
            "bufferView": "bufferView_169",
            "byteOffset": 0,
            "componentType": 5126,
            "count": 101,
            "type": "SCALAR"
        },
        "animAccessor_1": {
            "bufferView": "bufferView_169",
            "byteOffset": 404,
            "componentType": 5126,
            "count": 101,
            "type": "VEC3"
        }
    },
    "animations": {
        "animation_0": {
            "channels": [
                {
                    "sampler": "animation_0_translation_sampler",
                    "target": {
                        "id": "node-Obj3d66-664501-5-469",
                        "path": "translation"
                    }
                }
            ],
            "parameters": {
                "TIME": "animAccessor_0",
                "translation": "animAccessor_1"
            },
            "samplers": {
                "animation_0_translation_sampler": {
                    "input": "TIME",
                    "interpolation": "LINEAR",
                    "output": "translation"
                }
            }
        }
    },
    "asset": {
        "generator": "collada2gltf@d78daf1e7950e6c22fe6bec1d07965e8a302e90d",
        "premultipliedAlpha": true,
        "profile": {
            "api": "WebGL",
            "version": "1.0.2"
        },
        "version": 1
    },
    "bufferViews": {
        "bufferView_169": {
            "buffer": "\\models\\shafa3\\shafa2",
            "byteLength": 1616,
            "byteOffset": 0
        },
        "bufferView_170": {
            "buffer": "\\models\\shafa3\\shafa2",
            "byteLength": 143952,
            "byteOffset": 1616,
            "target": 34963
        },
        "bufferView_171": {
            "buffer": "\\models\\shafa3\\shafa2",
            "byteLength": 2143792,
            "byteOffset": 145568,
            "target": 34962
        }
    },
    "buffers": {
        "\\models\\shafa3\\shafa2": {
            "byteLength": 2289360,
            "type": "arraybuffer",
            "uri": "data:application/octet-stream;base64,"
        }
    },
    "images": {
        "_d66Model-664501-files-1_png": {
            "name": "_d66Model-664501-files-1_png",
            "uri": "images/0_3d66Model-664501-files-1.png"
        },
        "_d66Model-664501-files-2_png": {
            "name": "_d66Model-664501-files-2_png",
            "uri": "images/1_3d66Model-664501-files-2.png"
        }
    },
    "materials": {
        "Material__33": {
            "name": "Material__33",
            "technique": "technique0",
            "values": {
                "ambient": "texture__d66Model-664501-files-1_png",
                "diffuse": "texture__d66Model-664501-files-1_png",
                "emission": [
                    0,
                    0,
                    0,
                    1
                ],
                "shininess": 10,
                "specular": [
                    0,
                    0,
                    0,
                    1
                ]
            }
        },
        "Material__34": {
            "name": "Material__34",
            "technique": "technique0",
            "values": {
                "ambient": "texture__d66Model-664501-files-2_png",
                "diffuse": "texture__d66Model-664501-files-2_png",
                "emission": [
                    0,
                    0,
                    0,
                    1
                ],
                "shininess": 10,
                "specular": [
                    0,
                    0,
                    0,
                    1
                ]
            }
        }
    },
    "meshes": {
        "geom-Obj3d66-664501-1-640": {
            "name": "Obj3d66-664501-1-640",
            "primitives": [
                {
                    "attributes": {
                        "NORMAL": "accessor_35",
                        "POSITION": "accessor_33",
                        "TEXBINORMAL": "accessor_41",
                        "TEXCOORD_0": "accessor_37",
                        "TEXTANGENT": "accessor_39"
                    },
                    "indices": "accessor_31",
                    "material": "Material__33",
                    "mode": 4
                }
            ]
        },
        "geom-Obj3d66-664501-10-666": {
            "name": "Obj3d66-664501-10-666",
            "primitives": [
                {
                    "attributes": {
                        "NORMAL": "accessor_117",
                        "POSITION": "accessor_115",
                        "TEXBINORMAL": "accessor_123",
                        "TEXCOORD_0": "accessor_119",
                        "TEXTANGENT": "accessor_121"
                    },
                    "indices": "accessor_113",
                    "material": "Material__34",
                    "mode": 4
                }
            ]
        },
        "geom-Obj3d66-664501-5-469": {
            "name": "Obj3d66-664501-5-469",
            "primitives": [
                {
                    "attributes": {
                        "NORMAL": "accessor_76",
                        "POSITION": "accessor_74",
                        "TEXBINORMAL": "accessor_82",
                        "TEXCOORD_0": "accessor_78",
                        "TEXTANGENT": "accessor_80"
                    },
                    "indices": "accessor_72",
                    "material": "Material__34",
                    "mode": 4
                }
            ]
        },
        "geom-Obj3d66-664501-7-256": {
            "name": "Obj3d66-664501-7-256",
            "primitives": [
                {
                    "attributes": {
                        "NORMAL": "accessor_158",
                        "POSITION": "accessor_156",
                        "TEXBINORMAL": "accessor_164",
                        "TEXCOORD_0": "accessor_160",
                        "TEXTANGENT": "accessor_162"
                    },
                    "indices": "accessor_154",
                    "material": "Material__34",
                    "mode": 4
                }
            ]
        }
    },
    "nodes": {
        "node-Obj3d66-664501-1-640": {
            "children": [],
            "matrix": [
                0.055492,
                0,
                0,
                0,
                0,
                3.44313e-012,
                0.0766901,
                0,
                0,
                -0.055492,
                2.4914e-012,
                0,
                -0.205633,
                -0.28336,
                0.00981026,
                1
            ],
            "meshes": [
                "geom-Obj3d66-664501-1-640"
            ],
            "name": "Obj3d66-664501-1-640"
        },
        "node-Obj3d66-664501-10-666": {
            "children": [],
            "matrix": [
                0.584846,
                0,
                0,
                0,
                0,
                0.917385,
                0,
                0,
                0,
                0,
                1.18824,
                0,
                0.000353516,
                -0.147656,
                0.0553573,
                1
            ],
            "meshes": [
                "geom-Obj3d66-664501-10-666"
            ],
            "name": "Obj3d66-664501-10-666"
        },
        "node-Obj3d66-664501-5-469": {
            "children": [
                "node_3"
            ],
            "name": "Obj3d66-664501-5-469",
            "rotation": [
                -0.0871308,
                0.00208405,
                0.0238208,
                0.99591
            ],
            "scale": [
                0.0286335,
                0.0286335,
                0.0286335
            ],
            "translation": [
                0.010959,
                0.0473511,
                0.430989
            ]
        },
        "node-Obj3d66-664501-7-256": {
            "children": [],
            "matrix": [
                0.584846,
                0,
                0,
                0,
                0,
                1.21521,
                0,
                0,
                0,
                0,
                0.904819,
                0,
                0.000353518,
                -0.0999689,
                0.089323,
                1
            ],
            "meshes": [
                "geom-Obj3d66-664501-7-256"
            ],
            "name": "Obj3d66-664501-7-256"
        },
        "node_0": {
            "children": [],
            "matrix": [
                1,
                0,
                0,
                0,
                0,
                1,
                0,
                0,
                0,
                0,
                1,
                0,
                0,
                0,
                0,
                1
            ],
            "name": "EnvironmentAmbientLight"
        },
        "node_3": {
            "children": [],
            "matrix": [
                1,
                0,
                0,
                0,
                0,
                1,
                0,
                0,
                0,
                0,
                1,
                0,
                2.56308,
                -9.0199,
                -6.06262,
                1
            ],
            "meshes": [
                "geom-Obj3d66-664501-5-469"
            ],
            "name": ""
        },
        "node_6": {
            "children": [
                "node_0",
                "node-Obj3d66-664501-1-640",
                "node-Obj3d66-664501-5-469",
                "node-Obj3d66-664501-10-666",
                "node-Obj3d66-664501-7-256"
            ],
            "matrix": [
                1,
                0,
                0,
                0,
                0,
                0,
                -1,
                0,
                0,
                1,
                0,
                0,
                0,
                0,
                0,
                1
            ],
            "name": "Y_UP_Transform"
        }
    },
    "programs": {
        "program_0": {
            "attributes": [
                "a_normal",
                "a_position",
                "a_texcoord0"
            ],
            "fragmentShader": "\\models\\shafa3\\shafa20FS",
            "vertexShader": "\\models\\shafa3\\shafa20VS"
        }
    },
    "samplers": {
        "sampler_0": {
            "magFilter": 9729,
            "minFilter": 9729,
            "wrapS": 10497,
            "wrapT": 10497
        }
    },
    "scene": "defaultScene",
    "scenes": {
        "defaultScene": {
            "nodes": [
                "node_6"
            ]
        }
    },
    "shaders": {
        "\\models\\shafa3\\shafa20FS": {
            "type": 35632,
            "uri": "data:text/plain;base64,"
        },
        "\\models\\shafa3\\shafa20VS": {
            "type": 35633,
            "uri": "data:text/plain;base64,"
        }
    },
    "skins": {},
    "techniques": {
        "technique0": {
            "attributes": {
                "a_normal": "normal",
                "a_position": "position",
                "a_texcoord0": "texcoord0"
            },
            "parameters": {
                "ambient": {
                    "type": 35678
                },
                "diffuse": {
                    "type": 35678
                },
                "emission": {
                    "type": 35666
                },
                "modelViewMatrix": {
                    "semantic": "MODELVIEW",
                    "type": 35676
                },
                "normal": {
                    "semantic": "NORMAL",
                    "type": 35665
                },
                "normalMatrix": {
                    "semantic": "MODELVIEWINVERSETRANSPOSE",
                    "type": 35675
                },
                "position": {
                    "semantic": "POSITION",
                    "type": 35665
                },
                "projectionMatrix": {
                    "semantic": "PROJECTION",
                    "type": 35676
                },
                "shininess": {
                    "type": 5126
                },
                "specular": {
                    "type": 35666
                },
                "texcoord0": {
                    "semantic": "TEXCOORD_0",
                    "type": 35664
                }
            },
            "program": "program_0",
            "states": {
                "enable": [
                    2929,
                    2884
                ]
            },
            "uniforms": {
                "u_ambient": "ambient",
                "u_diffuse": "diffuse",
                "u_emission": "emission",
                "u_modelViewMatrix": "modelViewMatrix",
                "u_normalMatrix": "normalMatrix",
                "u_projectionMatrix": "projectionMatrix",
                "u_shininess": "shininess",
                "u_specular": "specular"
            }
        }
    },
    "textures": {
        "texture__d66Model-664501-files-1_png": {
            "format": 6408,
            "internalFormat": 6408,
            "sampler": "sampler_0",
            "source": "_d66Model-664501-files-1_png",
            "target": 3553,
            "type": 5121
        },
        "texture__d66Model-664501-files-2_png": {
            "format": 6408,
            "internalFormat": 6408,
            "sampler": "sampler_0",
            "source": "_d66Model-664501-files-2_png",
            "target": 3553,
            "type": 5121
        }
    }
}