{
    "accessors": {
        "accessor_113": {
            "bufferView": "bufferView_166",
            "byteOffset": 0,
            "byteStride": 0,
            "componentType": 5123,
            "count": 20736,
            "type": "SCALAR"
        },
        "accessor_115": {
            "bufferView": "bufferView_167",
            "byteOffset": 0,
            "byteStride": 12,
            "componentType": 5126,
            "count": 3734,
            "max": [
                0.238432,
                0.230765,
                0.305632
            ],
            "min": [
                -0.237725,
                -0.367131,
                0.175914
            ],
            "type": "VEC3"
        },
        "accessor_117": {
            "bufferView": "bufferView_167",
            "byteOffset": 44808,
            "byteStride": 12,
            "componentType": 5126,
            "count": 3734,
            "max": [
                1,
                1,
                1
            ],
            "min": [
                -1,
                -1,
                -1
            ],
            "type": "VEC3"
        },
        "accessor_119": {
            "bufferView": "bufferView_167",
            "byteOffset": 89616,
            "byteStride": 8,
            "componentType": 5126,
            "count": 3734,
            "max": [
                0.9443,
                0.9546
            ],
            "min": [
                0.0557,
                0.2146
            ],
            "type": "VEC2"
        },
        "accessor_121": {
            "bufferView": "bufferView_167",
            "byteOffset": 119488,
            "byteStride": 12,
            "componentType": 5126,
            "count": 3734,
            "max": [
                1,
                0.99996,
                0.905819
            ],
            "min": [
                -1,
                -0.999959,
                -0.910914
            ],
            "type": "VEC3"
        },
        "accessor_123": {
            "bufferView": "bufferView_167",
            "byteOffset": 164296,
            "byteStride": 12,
            "componentType": 5126,
            "count": 3734,
            "max": [
                0.999998,
                0.999972,
                1
            ],
            "min": [
                -1,
                -1,
                -1
            ],
            "type": "VEC3"
        },
        "accessor_154": {
            "bufferView": "bufferView_166",
            "byteOffset": 133584,
            "byteStride": 0,
            "componentType": 5123,
            "count": 5184,
            "type": "SCALAR"
        },
        "accessor_156": {
            "bufferView": "bufferView_167",
            "byteOffset": 916216,
            "byteStride": 12,
            "componentType": 5126,
            "count": 1010,
            "max": [
                0.239323,
                0.229924,
                0.181125
            ],
            "min": [
                -0.238616,
                -0.367238,
                0.089323
            ],
            "type": "VEC3"
        },
        "accessor_158": {
            "bufferView": "bufferView_167",
            "byteOffset": 928336,
            "byteStride": 12,
            "componentType": 5126,
            "count": 1010,
            "max": [
                1,
                1,
                1
            ],
            "min": [
                -1,
                -1,
                -1
            ],
            "type": "VEC3"
        },
        "accessor_160": {
            "bufferView": "bufferView_167",
            "byteOffset": 940456,
            "byteStride": 8,
            "componentType": 5126,
            "count": 1010,
            "max": [
                0.9314,
                0.9494
            ],
            "min": [
                0.0686,
                0.3743
            ],
            "type": "VEC2"
        },
        "accessor_162": {
            "bufferView": "bufferView_167",
            "byteOffset": 948536,
            "byteStride": 12,
            "componentType": 5126,
            "count": 1010,
            "max": [
                1,
                0.999995,
                0.946977
            ],
            "min": [
                -1,
                -0.99999,
                -0.998619
            ],
            "type": "VEC3"
        },
        "accessor_164": {
            "bufferView": "bufferView_167",
            "byteOffset": 960656,
            "byteStride": 12,
            "componentType": 5126,
            "count": 1010,
            "max": [
                0.999981,
                0.999804,
                1
            ],
            "min": [
                -0.999987,
                -1,
                -1
            ],
            "type": "VEC3"
        },
        "accessor_31": {
            "bufferView": "bufferView_166",
            "byteOffset": 41472,
            "byteStride": 0,
            "componentType": 5123,
            "count": 5904,
            "type": "SCALAR"
        },
        "accessor_33": {
            "bufferView": "bufferView_167",
            "byteOffset": 209104,
            "byteStride": 12,
            "componentType": 5126,
            "count": 4096,
            "max": [
                0.226691,
                0.0741465,
                0.0865004
            ],
            "min": [
                -0.227928,
                -0.327105,
                -0.106918
            ],
            "type": "VEC3"
        },
        "accessor_35": {
            "bufferView": "bufferView_167",
            "byteOffset": 258256,
            "byteStride": 12,
            "componentType": 5126,
            "count": 4096,
            "max": [
                0.9999,
                0.9999,
                1
            ],
            "min": [
                -0.9999,
                -0.9999,
                -1
            ],
            "type": "VEC3"
        },
        "accessor_37": {
            "bufferView": "bufferView_167",
            "byteOffset": 307408,
            "byteStride": 8,
            "componentType": 5126,
            "count": 4096,
            "max": [
                1.3269,
                1.1851
            ],
            "min": [
                -0.3269,
                -0.1851
            ],
            "type": "VEC2"
        },
        "accessor_39": {
            "bufferView": "bufferView_167",
            "byteOffset": 340176,
            "byteStride": 12,
            "componentType": 5126,
            "count": 4096,
            "max": [
                1,
                1,
                0.999954
            ],
            "min": [
                -1,
                -1,
                -0.999961
            ],
            "type": "VEC3"
        },
        "accessor_41": {
            "bufferView": "bufferView_167",
            "byteOffset": 389328,
            "byteStride": 12,
            "componentType": 5126,
            "count": 4096,
            "max": [
                1,
                1,
                0.999982
            ],
            "min": [
                -1,
                -1,
                -1
            ],
            "type": "VEC3"
        },
        "accessor_72": {
            "bufferView": "bufferView_166",
            "byteOffset": 53280,
            "byteStride": 0,
            "componentType": 5123,
            "count": 40152,
            "type": "SCALAR"
        },
        "accessor_74": {
            "bufferView": "bufferView_167",
            "byteOffset": 438480,
            "byteStride": 12,
            "componentType": 5126,
            "count": 8531,
            "max": [
                0.222545,
                0.135759,
                0.549801
            ],
            "min": [
                -0.210756,
                -0.0626356,
                0.302242
            ],
            "type": "VEC3"
        },
        "accessor_76": {
            "bufferView": "bufferView_167",
            "byteOffset": 540852,
            "byteStride": 12,
            "componentType": 5126,
            "count": 8531,
            "max": [
                0.9995,
                1,
                1
            ],
            "min": [
                -1,
                -0.9999,
                -1
            ],
            "type": "VEC3"
        },
        "accessor_78": {
            "bufferView": "bufferView_167",
            "byteOffset": 643224,
            "byteStride": 8,
            "componentType": 5126,
            "count": 8531,
            "max": [
                0.7769,
                0.6989
            ],
            "min": [
                0.224,
                0.2517
            ],
            "type": "VEC2"
        },
        "accessor_80": {
            "bufferView": "bufferView_167",
            "byteOffset": 711472,
            "byteStride": 12,
            "componentType": 5126,
            "count": 8531,
            "max": [
                0.999977,
                0.996814,
                0.957162
            ],
            "min": [
                -0.999859,
                -0.999,
                -0.955672
            ],
            "type": "VEC3"
        },
        "accessor_82": {
            "bufferView": "bufferView_167",
            "byteOffset": 813844,
            "byteStride": 12,
            "componentType": 5126,
            "count": 8531,
            "max": [
                0.999986,
                0.999599,
                0.999857
            ],
            "min": [
                -0.99997,
                -0.999632,
                -0.999998
            ],
            "type": "VEC3"
        }
    },
    "animations": {},
    "asset": {
        "generator": "collada2gltf@d78daf1e7950e6c22fe6bec1d07965e8a302e90d",
        "premultipliedAlpha": true,
        "profile": {
            "api": "WebGL",
            "version": "1.0.2"
        },
        "version": 1
    },
    "bufferViews": {
        "bufferView_166": {
            "buffer": "\\models\\shafa3\\shafa",
            "byteLength": 143952,
            "byteOffset": 0,
            "target": 34963
        },
        "bufferView_167": {
            "buffer": "\\models\\shafa3\\shafa",
            "byteLength": 972776,
            "byteOffset": 143952,
            "target": 34962
        }
    },
    "buffers": {
        "\\models\\shafa3\\shafa": {
            "byteLength": 1116728,
            "type": "arraybuffer",
            "uri": "data:application/octet-stream;base64,"
        }
    },
    "images": {
        "_d66Model-664501-files-1_png": {
            "name": "_d66Model-664501-files-1_png",
            "uri": "images/0_3d66Model-664501-files-1.png"
        },
        "_d66Model-664501-files-2_png": {
            "name": "_d66Model-664501-files-2_png",
            "uri": "images/1_3d66Model-664501-files-2.png"
        }
    },
    "materials": {
        "_shafaMaterial__33": {
            "name": "_shafaMaterial__33",
            "technique": "technique0",
            "values": {
                "ambient": "texture__d66Model-664501-files-1_png",
                "diffuse": "texture__d66Model-664501-files-1_png",
                "emission": [
                    0,
                    0,
                    0,
                    1
                ],
                "shininess": 10,
                "specular": [
                    0,
                    0,
                    0,
                    1
                ]
            }
        },
        "_shafaMaterial__34": {
            "name": "_shafaMaterial__34",
            "technique": "technique0",
            "values": {
                "ambient": "texture__d66Model-664501-files-2_png",
                "diffuse": "texture__d66Model-664501-files-2_png",
                "emission": [
                    0,
                    0,
                    0,
                    1
                ],
                "shininess": 10,
                "specular": [
                    0,
                    0,
                    0,
                    1
                ]
            }
        }
    },
    "meshes": {
        "geom-Obj3d66_664501_10_666": {
            "name": "Obj3d66_664501_10_666",
            "primitives": [
                {
                    "attributes": {
                        "NORMAL": "accessor_117",
                        "POSITION": "accessor_115",
                        "TEXBINORMAL": "accessor_123",
                        "TEXCOORD_0": "accessor_119",
                        "TEXTANGENT": "accessor_121"
                    },
                    "indices": "accessor_113",
                    "material": "_shafaMaterial__34",
                    "mode": 4
                }
            ]
        },
        "geom-Obj3d66_664501_1_640": {
            "name": "Obj3d66_664501_1_640",
            "primitives": [
                {
                    "attributes": {
                        "NORMAL": "accessor_35",
                        "POSITION": "accessor_33",
                        "TEXBINORMAL": "accessor_41",
                        "TEXCOORD_0": "accessor_37",
                        "TEXTANGENT": "accessor_39"
                    },
                    "indices": "accessor_31",
                    "material": "_shafaMaterial__33",
                    "mode": 4
                }
            ]
        },
        "geom-Obj3d66_664501_5_469": {
            "name": "Obj3d66_664501_5_469",
            "primitives": [
                {
                    "attributes": {
                        "NORMAL": "accessor_76",
                        "POSITION": "accessor_74",
                        "TEXBINORMAL": "accessor_82",
                        "TEXCOORD_0": "accessor_78",
                        "TEXTANGENT": "accessor_80"
                    },
                    "indices": "accessor_72",
                    "material": "_shafaMaterial__34",
                    "mode": 4
                }
            ]
        },
        "geom-Obj3d66_664501_7_256": {
            "name": "Obj3d66_664501_7_256",
            "primitives": [
                {
                    "attributes": {
                        "NORMAL": "accessor_158",
                        "POSITION": "accessor_156",
                        "TEXBINORMAL": "accessor_164",
                        "TEXCOORD_0": "accessor_160",
                        "TEXTANGENT": "accessor_162"
                    },
                    "indices": "accessor_154",
                    "material": "_shafaMaterial__34",
                    "mode": 4
                }
            ]
        }
    },
    "nodes": {
        "node-Obj3d66_664501_10_666": {
            "children": [],
            "matrix": [
                1,
                0,
                0,
                0,
                0,
                1,
                0,
                0,
                0,
                0,
                1,
                0,
                0,
                0,
                0,
                1
            ],
            "meshes": [
                "geom-Obj3d66_664501_10_666"
            ],
            "name": "Obj3d66_664501_10_666"
        },
        "node-Obj3d66_664501_1_640": {
            "children": [],
            "matrix": [
                1,
                0,
                0,
                0,
                0,
                1,
                0,
                0,
                0,
                0,
                1,
                0,
                0,
                0,
                0,
                1
            ],
            "meshes": [
                "geom-Obj3d66_664501_1_640"
            ],
            "name": "Obj3d66_664501_1_640"
        },
        "node-Obj3d66_664501_5_469": {
            "children": [],
            "matrix": [
                1,
                0,
                0,
                0,
                0,
                1,
                0,
                0,
                0,
                0,
                1,
                0,
                0,
                0,
                0,
                1
            ],
            "meshes": [
                "geom-Obj3d66_664501_5_469"
            ],
            "name": "Obj3d66_664501_5_469"
        },
        "node-Obj3d66_664501_7_256": {
            "children": [],
            "matrix": [
                1,
                0,
                0,
                0,
                0,
                1,
                0,
                0,
                0,
                0,
                1,
                0,
                0,
                0,
                0,
                1
            ],
            "meshes": [
                "geom-Obj3d66_664501_7_256"
            ],
            "name": "Obj3d66_664501_7_256"
        },
        "node_0": {
            "children": [],
            "matrix": [
                1,
                0,
                0,
                0,
                0,
                1,
                0,
                0,
                0,
                0,
                1,
                0,
                0,
                0,
                0,
                1
            ],
            "name": "EnvironmentAmbientLight"
        },
        "node_5": {
            "children": [
                "node_0",
                "node-Obj3d66_664501_1_640",
                "node-Obj3d66_664501_5_469",
                "node-Obj3d66_664501_10_666",
                "node-Obj3d66_664501_7_256"
            ],
            "matrix": [
                1,
                0,
                0,
                0,
                0,
                0,
                -1,
                0,
                0,
                1,
                0,
                0,
                0,
                0,
                0,
                1
            ],
            "name": "Y_UP_Transform"
        }
    },
    "programs": {
        "program_0": {
            "attributes": [
                "a_normal",
                "a_position",
                "a_texcoord0"
            ],
            "fragmentShader": "\\models\\shafa3\\shafa0FS",
            "vertexShader": "\\models\\shafa3\\shafa0VS"
        }
    },
    "samplers": {
        "sampler_0": {
            "magFilter": 9729,
            "minFilter": 9729,
            "wrapS": 10497,
            "wrapT": 10497
        }
    },
    "scene": "defaultScene",
    "scenes": {
        "defaultScene": {
            "nodes": [
                "node_5"
            ]
        }
    },
    "shaders": {
        "\\models\\shafa3\\shafa0FS": {
            "type": 35632,
            "uri": "data:text/plain;base64,"
        },
        "\\models\\shafa3\\shafa0VS": {
            "type": 35633,
            "uri": "data:text/plain;base64,"
        }
    },
    "skins": {},
    "techniques": {
        "technique0": {
            "attributes": {
                "a_normal": "normal",
                "a_position": "position",
                "a_texcoord0": "texcoord0"
            },
            "parameters": {
                "ambient": {
                    "type": 35678
                },
                "diffuse": {
                    "type": 35678
                },
                "emission": {
                    "type": 35666
                },
                "modelViewMatrix": {
                    "semantic": "MODELVIEW",
                    "type": 35676
                },
                "normal": {
                    "semantic": "NORMAL",
                    "type": 35665
                },
                "normalMatrix": {
                    "semantic": "MODELVIEWINVERSETRANSPOSE",
                    "type": 35675
                },
                "position": {
                    "semantic": "POSITION",
                    "type": 35665
                },
                "projectionMatrix": {
                    "semantic": "PROJECTION",
                    "type": 35676
                },
                "shininess": {
                    "type": 5126
                },
                "specular": {
                    "type": 35666
                },
                "texcoord0": {
                    "semantic": "TEXCOORD_0",
                    "type": 35664
                }
            },
            "program": "program_0",
            "states": {
                "enable": [
                    2929,
                    2884
                ]
            },
            "uniforms": {
                "u_ambient": "ambient",
                "u_diffuse": "diffuse",
                "u_emission": "emission",
                "u_modelViewMatrix": "modelViewMatrix",
                "u_normalMatrix": "normalMatrix",
                "u_projectionMatrix": "projectionMatrix",
                "u_shininess": "shininess",
                "u_specular": "specular"
            }
        }
    },
    "textures": {
        "texture__d66Model-664501-files-1_png": {
            "format": 6408,
            "internalFormat": 6408,
            "sampler": "sampler_0",
            "source": "_d66Model-664501-files-1_png",
            "target": 3553,
            "type": 5121
        },
        "texture__d66Model-664501-files-2_png": {
            "format": 6408,
            "internalFormat": 6408,
            "sampler": "sampler_0",
            "source": "_d66Model-664501-files-2_png",
            "target": 3553,
            "type": 5121
        }
    }
}